# xmcd CD database file
#
# Track frame offsets:
#	150
#	18860
#	35937
#	56057
#	73345
#	91937
#	110145
#	125810
#	144072
#	160047
#	179910
#	200612
#	219037
#	230837
#	246300
#	255812
#	270862
#	286112
#
# Disc length: 4016 seconds
#
# Revision: 3
# Processed by: cddbd v1.5.2PL0 Copyright (c) Steve Scherf et al.
# Submitted via: CDex 1.70beta2
#
DISCID=0a0fae12
DTITLE=Faith , Percy  - Music For Her and Bonus Tracks
DYEAR=2004
DGENRE=Easy Listening
TTITLE0=You`re Mine, You (Heyman-Green)
TTITLE1=You`re My Everything (Dixon-Young-Warren)
TTITLE2=I`ll Be Seeing You (Kahal-Fain)
TTITLE3=Take Me In Your Arms Parish-Markush)
TTITLE4=But Beautiful (Burke-Van Heuse)
TTITLE5=The Nearness Of You (Carmichael-Washington)
TTITLE6=You`d Be So Nice To Come Home To (Cole Porter)
TTITLE7=I`ll See You In My Dreams (Kahn-Jones)
TTITLE8=I Concentrate On You (Cole Porter)
TTITLE9=Everything I Have Is Yours (Adamson-Lane)
TTITLE10=Out Of This World (Mercer-Arlen)
TTITLE11=The Way You Look Tonight (Fields-Kern)
TTITLE12=(bonus track) True Or False (Sigman-Faith) (1953)
TTITLE13=(bonus track) Song For Sweethearts (Come Close) (Sigman-Faith) (1954)
TTITLE14=(bonus track) Blue Mirage (Don`t Go) (Coslow-Olias) (1955)
TTITLE15=(bonus track) Not As A Stranger (Kaye-Van Heusen) (1955)
TTITLE16=(bonus track) The World Is Mine (Adams-Young) (1955)
TTITLE17=(bonus track) We Don`t Say Goodbye (Sherman-Peters) (1955)
EXTD=YEAR: 2004
EXTT0=
EXTT1=
EXTT2=
EXTT3=
EXTT4=
EXTT5=
EXTT6=
EXTT7=
EXTT8=
EXTT9=
EXTT10=
EXTT11=
EXTT12=
EXTT13=
EXTT14=
EXTT15=
EXTT16=
EXTT17=
PLAYORDER=
